<svg width="20" height="20" viewBox="0 0 20 20" fill="none" xmlns="http://www.w3.org/2000/svg">
<g clip-path="url(#clip0_1871_7427)">
<path d="M19.7626 1.90413C19.6044 1.74648 19.3901 1.65796 19.1668 1.65796C18.9434 1.65796 18.7292 1.74648 18.571 1.90413L14.601 5.87413L14.3343 5.6133C13.6312 4.92659 12.7084 4.51004 11.7283 4.43701C10.7482 4.36399 9.77385 4.63919 8.97679 5.21413C7.8264 6.08163 6.54769 6.76429 5.18679 7.23746L3.45846 7.74413C2.89683 7.90899 2.3759 8.18952 1.92913 8.56768C1.48237 8.94584 1.11965 9.41328 0.864289 9.93996C0.613127 10.4595 0.473237 11.0258 0.453578 11.6025C0.433918 12.1792 0.534922 12.7537 0.750122 13.2891C1.56577 15.2914 2.96405 17.0026 4.76372 18.2008C6.5634 19.399 8.68149 20.029 10.8435 20.0091H11.6135C11.7857 20.009 11.9539 19.9561 12.0951 19.8575C13.562 18.9 14.8156 17.6503 15.7777 16.1865C16.7398 14.7227 17.3897 13.0763 17.6868 11.35C17.7901 10.6899 17.7342 10.0146 17.5235 9.38058C17.3129 8.74652 16.9537 8.17201 16.476 7.70496L15.8093 7.05163L19.7651 3.0958C19.9224 2.93724 20.0105 2.7228 20.01 2.49945C20.0096 2.27609 19.9206 2.06202 19.7626 1.90413ZM11.3401 18.3208H10.8401C9.60882 18.3225 8.38913 18.0827 7.25012 17.615L7.25929 17.61C8.7167 16.8787 9.96436 15.789 10.8851 14.4433L11.3168 13.8091C11.4425 13.6246 11.4898 13.3976 11.4483 13.1782C11.4067 12.9588 11.2797 12.7649 11.0951 12.6391C10.9106 12.5134 10.6836 12.4661 10.4642 12.5076C10.2448 12.5492 10.0509 12.6762 9.92512 12.8608L9.49345 13.495C8.73279 14.6046 7.70284 15.503 6.50012 16.1058L5.45762 16.6308C4.62355 16.0445 3.89561 15.3202 3.30512 14.4891C4.67094 14.0296 5.91704 13.2712 6.95262 12.2691C7.11242 12.1129 7.20359 11.8995 7.20609 11.6761C7.20859 11.4526 7.12221 11.2373 6.96596 11.0775C6.8097 10.9177 6.59636 10.8265 6.37288 10.824C6.1494 10.8215 5.93408 10.9079 5.77429 11.0641C4.84169 11.9678 3.70348 12.6312 2.45762 12.9975C2.40679 12.885 2.35179 12.775 2.30596 12.6591C2.17689 12.3422 2.11647 12.0015 2.12868 11.6595C2.14089 11.3174 2.22545 10.9819 2.37679 10.675C2.53 10.3598 2.74728 10.08 3.01475 9.85362C3.28222 9.62719 3.59398 9.45905 3.93012 9.35996L5.65762 8.8533C6.66008 8.53126 7.61899 8.08679 8.51262 7.52996L15.1085 13.9566C14.2321 15.7012 12.9375 17.2016 11.3401 18.3241V18.3208ZM16.0235 11.085C15.9597 11.4748 15.8738 11.8607 15.766 12.2408L9.95679 6.5833C10.383 6.27699 10.8945 6.11203 11.4193 6.11163C12.0685 6.11081 12.6921 6.36486 13.156 6.81913L15.2968 8.90996C15.5826 9.18897 15.7976 9.5322 15.924 9.91109C16.0504 10.29 16.0845 10.6936 16.0235 11.0883V11.085Z" fill="white"/>
</g>
<defs>
<clipPath id="clip0_1871_7427">
<rect width="20" height="20" fill="white"/>
</clipPath>
</defs>
</svg>
