<svg width="64" height="64" viewBox="0 0 64 64" fill="none" xmlns="http://www.w3.org/2000/svg">
<rect x="0.5" y="0.5" width="63" height="63" rx="31.5" fill="white"/>
<rect x="0.5" y="0.5" width="63" height="63" rx="31.5" stroke="#B0B5C5"/>
<path d="M27.1183 16.1394V16.041L27.0398 16.0902L27.1183 16.1394Z" fill="#B0B5C5"/>
<path d="M27.1201 24.041V23.9644L27.0596 24.0022L27.1201 24.041Z" fill="#B0B5C5"/>
<path d="M27.1189 17.272V22.83L31.5099 20.0448L27.1189 17.272Z" fill="#B0B5C5"/>
<path d="M31.9355 27.0834V20.9097L27.1189 23.9644V24.041L31.9355 27.0834Z" fill="#B0B5C5"/>
<path d="M43.0978 34.1316C43.9622 31.2887 43.9981 29.2223 44 29.0625L39.5447 31.8874L43.0978 34.1316Z" fill="#B0B5C5"/>
<path d="M39.1189 32.7524V38.7503L42.0658 36.8815C42.3448 36.2583 42.585 35.652 42.7893 35.0704L39.1198 32.7524H39.1189Z" fill="#B0B5C5"/>
<path d="M38.1582 23.1129V16.9619L33.2971 20.044L38.1582 23.1129Z" fill="#B0B5C5"/>
<path d="M38.1582 31.0153V24.8633L33.2971 27.9454L38.1582 31.0153Z" fill="#B0B5C5"/>
<path d="M38.1607 14.0013C36.9407 13.6996 35.7813 13.3658 34.7031 13.0234L38.1607 15.21V14.0023V14.0013Z" fill="#B0B5C5"/>
<path d="M43.9981 18.9003V16.9435C43.9981 16.3449 43.9981 15.1476 42.8008 14.9083C42.4225 14.8554 42.048 14.7958 41.6754 14.7324L39.5447 16.0839L43.9981 18.9003Z" fill="#B0B5C5"/>
<path d="M44 26.8005V21.1611L39.5447 23.987L44 26.8005Z" fill="#B0B5C5"/>
<path d="M40.2907 14.4777C39.8954 14.3983 39.5048 14.315 39.1189 14.228V15.221L40.2907 14.4777Z" fill="#B0B5C5"/>
<path d="M27.1189 25.1738V30.7309L31.5099 27.9467L27.1189 25.1738Z" fill="#B0B5C5"/>
<path d="M31.9355 19.1823V12.9868L27.1189 16.0415V16.1399L31.9355 19.1823Z" fill="#B0B5C5"/>
<path d="M30.5453 11.5264C28.4108 10.6667 27.1189 10 27.1189 10V14.9074L31.4986 12.1298L30.5443 11.5264H30.5453Z" fill="#B0B5C5"/>
<path d="M39.1189 31.0225L43.9951 27.9309L39.1189 24.8516V31.0225Z" fill="#B0B5C5"/>
<path d="M39.1189 41.7386C39.3279 41.4747 39.5294 41.2099 39.7213 40.9451L39.1189 40.5649V41.7386Z" fill="#B0B5C5"/>
<path d="M40.266 40.1571C40.6254 39.6134 40.9488 39.0724 41.242 38.5371L39.4753 39.6578L40.2669 40.1571H40.266Z" fill="#B0B5C5"/>
<path d="M33.2278 43.6211L35.7311 45.2024C36.6371 44.4496 37.4448 43.6684 38.1635 42.8731V40.4917L33.2278 43.6211Z" fill="#B0B5C5"/>
<path d="M32.8909 13.0122V19.1689L37.7519 16.0858L32.8909 13.0122Z" fill="#B0B5C5"/>
<path d="M32.8945 44.6709H31.9364V44.4382L31.4333 44.757L30.9207 43.9484L31.4352 43.6221L27.1189 40.8965V49.984C30.2805 48.8624 32.8481 47.4267 34.9363 45.8332L32.8935 44.5432V44.6709H32.8945Z" fill="#B0B5C5"/>
<path d="M32.8909 20.9194V27.0695L37.7491 23.9883L32.8909 20.9194Z" fill="#B0B5C5"/>
<path d="M32.8909 36.6333V42.6973L37.6819 39.6596L32.8909 36.6333Z" fill="#B0B5C5"/>
<path d="M39.1189 16.9478V23.1215L43.9941 20.0299L43.9639 20.011L39.1189 16.9478Z" fill="#B0B5C5"/>
<path d="M27.1189 32.9868V38.6328L31.5799 35.8041L27.1189 32.9868Z" fill="#B0B5C5"/>
<path d="M38.1573 38.8277V32.7646L33.3662 35.8023L38.1573 38.8277Z" fill="#B0B5C5"/>
<path d="M32.8909 28.8208V34.9699L37.7491 31.8897L32.8909 28.8208Z" fill="#B0B5C5"/>
<path d="M31.9367 28.8105L27.1287 31.8596L31.9367 34.8963V28.8105Z" fill="#B0B5C5"/>
<path d="M31.9336 36.7119L27.1189 39.7657L31.9336 42.8062V36.7119Z" fill="#B0B5C5"/>
<path d="M33.9487 13.4736C33.9487 13.4736 26.7659 17.1847 18.2666 18.382C17.0694 18.6212 17.0693 19.8185 17.0693 20.4172V32.5244C17.0693 32.5244 17.0693 47.4717 33.9487 53.4572V13.4736Z" fill="#005CAF"/>
<path d="M23.7717 27.9419H17.0693V28.6597H23.7717V27.9419Z" fill="white"/>
<path d="M26.3394 31.9443H17.0693V32.543H26.3394V31.9443Z" fill="white"/>
<path fill-rule="evenodd" clip-rule="evenodd" d="M17.01 31.8833H26.403V32.6049H17.01V31.8833ZM17.133 32.0062V32.4819H26.2801V32.0062H17.133Z" fill="white"/>
<path d="M23.779 35.8267L17.5249 35.8834C17.5722 36.0962 17.6242 36.3175 17.6819 36.5454H23.779V35.8276V35.8267Z" fill="white"/>
<path d="M26.3474 39.8281L18.7825 39.8338C18.8647 40.0295 18.9508 40.2272 19.0407 40.4258H26.3474V39.8271V39.8281Z" fill="white"/>
<path fill-rule="evenodd" clip-rule="evenodd" d="M26.3504 39.7666L26.3505 39.8271H26.412V40.4872H19.0041L18.9878 40.4511C18.8977 40.252 18.8114 40.0538 18.7289 39.8576L18.6931 39.7723L26.3504 39.7666ZM26.289 39.8896V40.3643H19.0835C19.0127 40.2071 18.9443 40.0506 18.8783 39.8952L26.289 39.8896Z" fill="white"/>
<path d="M24.6729 37.356C24.0128 37.356 23.4756 36.8188 23.4756 36.1587C23.4756 35.4986 24.0128 34.9614 24.6729 34.9614C25.333 34.9614 25.8702 35.4986 25.8702 36.1587C25.8702 36.8188 25.333 37.356 24.6729 37.356ZM24.6729 35.5601C24.3428 35.5601 24.0742 35.8287 24.0742 36.1587C24.0742 36.4888 24.3428 36.7574 24.6729 36.7574C25.003 36.7574 25.2715 36.4888 25.2715 36.1587C25.2715 35.8287 25.003 35.5601 24.6729 35.5601Z" fill="white"/>
<path d="M27.1873 33.4058C26.5272 33.4058 25.99 32.8686 25.99 32.2085C25.99 31.5484 26.5272 31.0112 27.1873 31.0112C27.8474 31.0112 28.3846 31.5484 28.3846 32.2085C28.3846 32.8686 27.8474 33.4058 27.1873 33.4058ZM27.1873 31.6099C26.8572 31.6099 26.5886 31.8785 26.5886 32.2085C26.5886 32.5386 26.8572 32.8072 27.1873 32.8072C27.5173 32.8072 27.7859 32.5386 27.7859 32.2085C27.7859 31.8785 27.5173 31.6099 27.1873 31.6099Z" fill="white"/>
<path d="M24.6729 29.4551C24.0128 29.4551 23.4756 28.918 23.4756 28.2578C23.4756 27.5977 24.0128 27.0605 24.6729 27.0605C25.333 27.0605 25.8702 27.5977 25.8702 28.2578C25.8702 28.918 25.333 29.4551 24.6729 29.4551ZM24.6729 27.6592C24.3428 27.6592 24.0742 27.9278 24.0742 28.2578C24.0742 28.5879 24.3428 28.8565 24.6729 28.8565C25.003 28.8565 25.2715 28.5879 25.2715 28.2578C25.2715 27.9278 25.003 27.6592 24.6729 27.6592Z" fill="white"/>
<path d="M27.4251 25.5049C26.7649 25.5049 26.2278 24.9678 26.2278 24.3076C26.2278 23.6475 26.7649 23.1104 27.4251 23.1104C28.0852 23.1104 28.6224 23.6475 28.6224 24.3076C28.6224 24.9678 28.0852 25.5049 27.4251 25.5049ZM27.4251 23.709C27.095 23.709 26.8264 23.9776 26.8264 24.3076C26.8264 24.6377 27.095 24.9063 27.4251 24.9063C27.7551 24.9063 28.0237 24.6377 28.0237 24.3076C28.0237 23.9776 27.7551 23.709 27.4251 23.709Z" fill="white"/>
<path d="M27.1873 41.3072C26.5272 41.3072 25.99 40.77 25.99 40.1099C25.99 39.4498 26.5272 38.9126 27.1873 38.9126C27.8474 38.9126 28.3846 39.4498 28.3846 40.1099C28.3846 40.77 27.8474 41.3072 27.1873 41.3072ZM27.1873 39.5112C26.8572 39.5112 26.5886 39.7798 26.5886 40.1099C26.5886 40.4399 26.8572 40.7085 27.1873 40.7085C27.5173 40.7085 27.7859 40.4399 27.7859 40.1099C27.7859 39.7798 27.5173 39.5112 27.1873 39.5112Z" fill="white"/>
<path d="M17.0603 24.0503L17.0593 24.6489L26.5166 24.6638L26.5176 24.0651L17.0603 24.0503Z" fill="white"/>
<path fill-rule="evenodd" clip-rule="evenodd" d="M17 24.7104L17.0011 23.9889L26.5814 24.0039L26.5802 24.7255L17 24.7104ZM17.1231 24.5877L26.4575 24.6024L26.4582 24.1267L17.1239 24.112L17.1231 24.5877Z" fill="white"/>
</svg>
