<svg width="48" height="48" viewBox="0 0 48 48" fill="none" xmlns="http://www.w3.org/2000/svg">
<path d="M0 24C0 10.7452 10.7452 0 24 0C37.2548 0 48 10.7452 48 24C48 37.2548 37.2548 48 24 48C10.7452 48 0 37.2548 0 24Z" fill="#F3FCF6"/>
<path d="M21 34.748C19.039 34.748 18.055 34.748 17.182 34.386C16.01 33.901 15.097 32.9881 14.612 31.8161C14.25 30.9431 14.25 29.959 14.25 27.998V21.998C14.25 18.0251 14.25 16.03 15.641 14.64C17.032 13.248 19.026 13.248 22.9999 13.248C26.9739 13.248 28.968 13.248 30.359 14.64C31.75 16.03 31.75 18.025 31.75 21.998V22.498C31.75 22.912 31.414 23.248 31 23.248C30.586 23.248 30.25 22.912 30.25 22.498V21.998C30.25 18.439 30.25 16.652 29.298 15.701C28.346 14.748 26.5601 14.748 23.0002 14.748C19.4402 14.748 17.654 14.748 16.702 15.7C15.75 16.652 15.75 18.438 15.75 21.998V27.998C15.75 29.76 15.75 30.645 15.997 31.242C16.329 32.043 16.954 32.668 17.756 33C18.353 33.248 19.238 33.248 21 33.248C21.414 33.248 21.75 33.584 21.75 33.998C21.75 34.412 21.414 34.748 21 34.748Z" fill="#067647"/>
<path d="M23 23.748H19C18.586 23.748 18.25 23.412 18.25 22.998C18.25 22.584 18.586 22.248 19 22.248H23C23.414 22.248 23.75 22.584 23.75 22.998C23.75 23.412 23.414 23.748 23 23.748Z" fill="#067647"/>
<path d="M27 19.748H19C18.586 19.748 18.25 19.412 18.25 18.998C18.25 18.584 18.586 18.248 19 18.248H27C27.414 18.248 27.75 18.584 27.75 18.998C27.75 19.412 27.414 19.748 27 19.748Z" fill="#067647"/>
<path fill-rule="evenodd" clip-rule="evenodd" d="M23.25 33.998C23.25 34.412 23.586 34.748 24 34.748H33C33.414 34.748 33.75 34.413 33.75 33.999V32.753C33.75 31.972 33.277 31.299 32.574 31.077L30.516 30.423C30.582 29.745 30.698 29.09 30.989 28.373C31.319 27.561 31.334 26.265 30.725 25.36C30.39 24.863 29.739 24.27 28.5 24.27C27.261 24.27 26.598 24.869 26.26 25.371C25.648 26.28 25.66 27.57 25.987 28.373C26.29 29.118 26.415 29.794 26.482 30.424L24.427 31.076C23.723 31.298 23.25 31.972 23.25 32.752V33.998ZM32.25 32.752V33.248H24.75V32.752C24.75 32.625 24.817 32.526 24.88 32.506L27.136 31.79C27.222 31.762 27.312 31.748 27.402 31.748H29.598C29.688 31.748 29.778 31.762 29.865 31.79L32.121 32.506C32.183 32.526 32.25 32.625 32.25 32.752ZM29.026 30.248H27.972C27.894 29.523 27.743 28.709 27.377 27.807C27.227 27.439 27.188 26.678 27.505 26.207C27.704 25.912 28.035 25.769 28.501 25.769C28.967 25.769 29.287 25.909 29.481 26.197C29.796 26.664 29.752 27.433 29.6 27.808C29.244 28.683 29.103 29.473 29.026 30.248Z" fill="#067647"/>
</svg>
